<svg xmlns="http://www.w3.org/2000/svg" width="299.503" height="51.968" viewBox="0 0 299.503 51.968">
  <g id="Capa_2" data-name="Capa 2" transform="translate(0 0.28)">
    <g id="Capa_2-2" data-name="Capa 2" transform="translate(0 -0.28)">
      <g id="Capa_2-2-2" data-name="Capa 2-2">
        <path id="Trazado_1" data-name="Trazado 1" d="M217.67,18.612l-3.145.412c-.691.088-1.47.132-2.087.22a.485.485,0,0,1-.6-.323.249.249,0,0,1,0-.1c-.162-.691-.309-1.367-.5-2.043-.1-.367,0-.514.382-.617.559-.162,1.1-.367,1.69-.588-.147-.367-.265-.676-.4-1.044l-3.1,1.249c.382,1.543.735,3.028,1.132,4.586l6.79-.382a5.878,5.878,0,0,1,.088,1.014,21.738,21.738,0,0,1-1.47,7.966c-.176.426-.367.529-.808.338l-4.409-1.764c-.235-.088-.426-.176-.323-.514q.353-1.058.661-2.161c.088-.353.265-.456.617-.367l1.764.338a5.417,5.417,0,0,1,.22-1.1l-3.263-.441c-.294,1.029-.588,2.028-.882,3.028a4.761,4.761,0,0,1-.4.985c-.22.367-.118.544.25.706l5.247,2.455.588.309a23.312,23.312,0,0,1-6.379,7.349,1.176,1.176,0,0,1-.25-.22c-1.029-1.249-2.028-2.528-3.072-3.777-.235-.294-.22-.47,0-.72q.867-.735,1.676-1.47a.4.4,0,0,1,.573-.073l.088.073,1.323,1.117h.118c.764-.706.764-.706,0-1.323s-1.279-.955-1.867-1.382l-3.6,3.219,3.748,5.424a21.915,21.915,0,0,1-9.377,3.41c-.162-1.1-.294-2.175-.456-3.248-.073-.588-.162-1.176-.25-1.764a.5.5,0,0,1,.309-.632h.147l2.2-.485c.309-.073.5,0,.573.338a13,13,0,0,0,.426,1.279c.176.514.514.25.838.176s.382-.279.235-.588c-.382-.867-.75-1.749-1.1-2.557L196.829,36c0,.985.1,2.028.176,3.087s.162,1.94.25,2.94c0,.382-.132.573-.514.573a26.3,26.3,0,0,1-9.407-1.558c.1-.294.206-.588.338-.9.544-1.279,1.1-2.557,1.646-3.851.162-.382.338-.47.735-.323a19.666,19.666,0,0,0,2.072.588c.4.088.5.265.412.632s-.147.808-.25,1.22.132.529.47.573.573.162.647-.353c.088-.764.235-1.47.353-2.278.074-.4,0-.573-.47-.661-1.249-.323-2.5-.706-3.719-1.1-.353-.118-.5-.1-.676.235-.823,1.646-1.661,3.292-2.5,4.924-.1.22-.235.412-.353.632a21.445,21.445,0,0,1-6.482-4.615c-.338-.367-.661-.764-1.014-1.161s-.191-.412,0-.588L182.63,31l2.4,2.146-1.47,1.6c.794.852.794.852,1.47,0,.485-.588.97-1.22,1.47-1.793L183.13,29.5l-3.66,2.322-1.69,1.161c-.22.147-.367.191-.544-.073a20.151,20.151,0,0,1-3.307-8.569.353.353,0,0,1,0-.176l5.673-.72c.235,1,.47,1.984.72,2.94l-2.161.72.441,1.029,3.043-1.191-1.073-4.63-6.232.426c-.617,0-.647,0-.676-.588a20.577,20.577,0,0,1,1.47-8.422,1.692,1.692,0,0,1,.206-.514l2.117.823c.941.367,1.867.75,2.807,1.1.367.132.47.294.323.676-.25.676-.441,1.367-.632,2.058-.088.309-.235.426-.559.353s-.764-.162-1.161-.22c-.691-.132-.764-.073-.852.632a1.764,1.764,0,0,1,0,.353l2.513.309c.9.118.823.309,1.073-.794a24.982,24.982,0,0,1,1-3.013c.147-.426.088-.632-.323-.823-1.72-.794-3.425-1.631-5.144-2.455l-.573-.279c.441-.735.823-1.47,1.293-2.131A23.282,23.282,0,0,1,181.9,4.87c.338-.265.529-.294.823.088,1.014,1.323,2.072,2.616,3.16,3.968l-2.337,2.1L181.9,9.661h-.1c-.75.735-.735.808.088,1.47l1.852,1.323,3.6-3.234-3.763-5.453a23.032,23.032,0,0,1,9.377-3.41c.25,1.837.514,3.63.764,5.482l-3.145.691L189.8,4.5l-1.088.382c.456,1.044.867,2.014,1.308,3.013.706-.206,1.352-.441,2.028-.588a21.664,21.664,0,0,1,2.175-.367c.367,0,.5-.147.485-.529-.118-1.837-.191-3.675-.309-5.512,0-.691,0-.735.676-.72a24.4,24.4,0,0,1,8.7,1.47l.514.191c-.735,1.631-1.47,3.263-2.131,4.85a.47.47,0,0,1-.426.191c-.764-.191-1.47-.441-2.337-.632-.338-.088-.485-.235-.382-.588s.147-.764.25-1.161,0-.676-.456-.661h-.573c-.147,1-.279,1.97-.382,2.94,0,.118.206.338.353.382,1.293.412,2.616.764,3.91,1.176.323.1.441,0,.559-.279l2.587-5.2c.294-.588.294-.588.882-.294a22.664,22.664,0,0,1,6.982,5.556l.22.265-4.512,3.336L206.5,9.588l1.47-1.617a6.807,6.807,0,0,0-.706-.588.456.456,0,0,0-.426.088c-.617.75-1.205,1.47-1.779,2.263,1.161,1.1,2.337,2.175,3.586,3.336l1.823-1.176c1.044-.676,2.117-1.338,3.145-2.028.4-.279.588-.176.852.206a22.179,22.179,0,0,1,3.1,7.908A4.407,4.407,0,0,1,217.67,18.612ZM208.4,15.379c1.573-.75,3.2-1.47,4.85-2.264a.5.5,0,0,1,.441.147c.382.926.735,1.867,1.088,2.807.132.338,0,.47-.353.529l-1.338.323a.367.367,0,0,0-.338.412.426.426,0,0,0,0,.132,1.876,1.876,0,0,0,.206.588l3.263-.617a16.006,16.006,0,0,0-2.366-6.041l-.265.118-5.247,2.94c-.382.206-.544.147-.794-.191a23.088,23.088,0,0,0-1.881-2.278q-1.006-.941-2.1-1.778c1-1.47,2-2.851,2.94-4.292.22-.309.426-.206.647,0l2.293,1.69a5.282,5.282,0,0,0,.5.25l-1.749,1.72.764.72,2.557-2.2-.353-.382a27.354,27.354,0,0,0-4.351-3.381c-.426-.265-.632-.22-.882.206-.926,1.587-1.881,3.16-2.837,4.733-.1.176-.22.338-.338.514a14.7,14.7,0,0,0-5.644-1.72.544.544,0,0,1-.353-.382c0-1.646.176-3.278.294-4.909a.367.367,0,0,1,.25-.279,11.994,11.994,0,0,1,3.6.588c-.176.72-.353,1.382-.529,2.043.882.485,1.044.426,1.308-.426.206-.588.382-1.205.632-1.793s0-.573-.367-.72a22.753,22.753,0,0,0-5.159-.794h-1v6.57a16.168,16.168,0,0,0-6.188,1.47c-.823-1.6-1.632-3.145-2.425-4.718a.485.485,0,0,1,.191-.426c.985-.4,1.984-.735,2.94-1.1.279-.1.426,0,.485.279s.22.794.279,1.176a.544.544,0,0,0,.764.456l.5-.132c-.235-1.1-.441-2.146-.661-3.2a20.283,20.283,0,0,0-6.335,2.322l3.087,5.13c.382.617.4.647-.235,1.029a13.228,13.228,0,0,0-3.866,3.542l-.22.235-4.512-2.94c-.279-.162-.191-.367,0-.573.617-.735,1.235-1.47,1.881-2.161a.6.6,0,0,1,.588,0,6.378,6.378,0,0,1,.926.852c.25.265.47.338.764.132l.529-.47-2.249-2.41a.9.9,0,0,0-.206.1,20.578,20.578,0,0,0-3.924,4.5c-.176.279-.088.441.162.588l1.073.573,4.527,2.41a15.874,15.874,0,0,0-1.749,5.526c0,.1-.25.294-.382.279-1.69,0-3.381-.147-5.071-.25-.118,0-.353-.206-.338-.309.132-1.161.309-2.278.47-3.454l2.278.559c.073-.162.1-.279.162-.382.235-.426.132-.661-.382-.794s-1.352-.441-2.043-.676-.72-.206-.852.412c-.309,1.47-.588,2.807-.823,4.218a14.824,14.824,0,0,0,0,1.617h6.864a14.7,14.7,0,0,0,1.47,5.879l-.926.456c-1.323.632-2.646,1.264-3.983,1.867a.426.426,0,0,1-.412-.1c-.456-1.058-.882-2.131-1.308-3.145.132-.1.162-.147.191-.147l1.191-.294c.882-.206.955-.353.588-1.264l-3.278.632a16.168,16.168,0,0,0,2.41,6.041L183.7,27.99a13.875,13.875,0,0,0,4.409,4.409c-1.029,1.47-2,2.851-2.94,4.248-.22.338-.426.338-.705.1-.75-.588-1.47-1.205-2.249-1.749-.338-.265-.279-.426,0-.676s.867-.808,1.338-1.249a6.583,6.583,0,0,0-.588-.529c-.088-.073-.279-.118-.353,0l-2.572,2.028a20.577,20.577,0,0,0,5.262,4.16l3.557-5.747a16.639,16.639,0,0,0,6.041,1.749c-.1,1.881-.206,3.689-.323,5.629l-3.88-.573c.206-.794.382-1.47.573-2.131-.926-.529-.985-.514-1.308.412-.088.235-.176.47-.25.72-.191.529-.367,1.044-.544,1.6a22.665,22.665,0,0,0,6.717,1.058v-6.7a15.066,15.066,0,0,0,6.144-1.4l2.6,4.968-.4.22c-.911.323-1.837.632-2.749.97-.4.162-.588.088-.676-.353s-.309-1.073-.47-1.617l-1.058.265.691,3.219a21.078,21.078,0,0,0,6.32-2.308l-3.513-5.776a15.786,15.786,0,0,0,4.674-4.145l4.924,3.145-2.631,2.94-1.47-1.7-.882.794c.632.706,1.279,1.382,1.9,2.087.265.294.456.294.706,0,1.088-1.235,2.19-2.469,3.278-3.719a7.172,7.172,0,0,0,.632-.955l-5.938-3.336a15.022,15.022,0,0,0,1.808-5.526c0-.1.279-.25.441-.25.926,0,1.867.088,2.807.147l2.66.176-.647,3.689-2.263-.544c0,.162-.118.265-.162.382-.235.617-.235.588.382.808s1.47.441,2.146.706c.412.162.573,0,.691-.367.265-1.235.559-2.455.779-3.7.118-.706.147-1.47.22-2.2H209.91c-.147-1.044-.235-2.043-.47-3.013s-.647-1.94-.97-2.94Z" transform="translate(81.583 0.495)" fill="#fff"/>
        <path id="Trazado_2" data-name="Trazado 2" d="M3.939,11.353a7.231,7.231,0,0,1,5.776,2.94,33.467,33.467,0,0,1,2.1,3.145q1.852,2.94,3.675,5.732l2.94,4.747a11.758,11.758,0,0,0,.852,1.205.676.676,0,0,0,.941.176.72.72,0,0,0,.235-.279L25,21.862l5.262-8.231c.926-1.47,1.852-2.866,2.866-4.233a7.761,7.761,0,0,1,4.307-2.94,7.07,7.07,0,0,1,5.379.514,3.645,3.645,0,0,1,1.161,1.161.573.573,0,0,1-.5.926,5.953,5.953,0,0,0-4.924,3.057L33.82,19.643c-1.587,2.513-3.087,4.953-4.645,7.349s-3.116,4.939-4.659,7.349a17.064,17.064,0,0,1-1.69,2.425,4.262,4.262,0,0,1-6.026,0,3.954,3.954,0,0,1-.573-.735c-1.558-2.5-3.16-4.983-4.747-7.467-1.308-2.058-2.66-4.2-4.027-6.364S4.615,17.791,3.19,15.645a3.351,3.351,0,0,0-2.366-1.47A1.029,1.029,0,0,1,0,13.72a1.338,1.338,0,0,1,.338-.926,4.953,4.953,0,0,1,3.6-1.44Z" transform="translate(0 3.301)" fill="#fff"/>
        <path id="Trazado_3" data-name="Trazado 3" d="M70.311,12.79v.529a6.129,6.129,0,0,0-1.058,0,1.7,1.7,0,0,0-1.793,1.808V31.118a1.69,1.69,0,0,0,1.646,1.72h1.161v.47h-10.3c-.132,0-.265-.176-.382-.265.118-.088.235-.25.382-.265a3.724,3.724,0,0,0,1.264-.147,1.47,1.47,0,0,0,1.161-1.47V14.73c-.132.25-.206.382-.265.514q-3.689,8.819-7.349,17.638a2.94,2.94,0,0,1-.162.382c0,.088-.191.22-.294.22a.382.382,0,0,1-.265-.235c-.294-.617-.559-1.249-.823-1.881q-3.366-7.981-6.82-16.021a3.425,3.425,0,0,0-.235-.456V30.413a2.293,2.293,0,0,0,2.117,2.44h.852v.5h-7v-.485h.573a2.263,2.263,0,0,0,2.293-2.249v-15.2c0-1.646-.985-2-2.058-2.058h-.794v-.5H50.2c.382,0,.441.235.544.485L56.1,25.886c0,.162.132.309.25.588.1-.235.176-.367.235-.514q2.587-6.261,5.13-12.508a.794.794,0,0,1,.852-.588h7.143Z" transform="translate(19.803 6.42)" fill="#fff"/>
        <path id="Trazado_4" data-name="Trazado 4" d="M102.468,13.358v-.529h10.2v.485a10.068,10.068,0,0,0-1.058.162,1.47,1.47,0,0,0-1.279,1.4v7.349a2.16,2.16,0,0,0,0,.485l.735-.588c2.366-1.925,4.747-3.836,7.114-5.776a6.982,6.982,0,0,0,1.029-1.058c.661-.867.309-1.661-.764-1.852a4.484,4.484,0,0,0-.764-.073c-.412,0-.529-.162-.367-.588h7.908c.147.4,0,.514-.353.588a3.968,3.968,0,0,0-1.617.588c-2.866,2.175-5.688,4.409-8.54,6.673a3.144,3.144,0,0,0,.191.279c2.425,3.028,4.836,6.07,7.261,9.083.338.426.706.838,1.088,1.235a4.409,4.409,0,0,0,3.013,1.646v.5H115.579c-.088-.323-.088-.559.323-.588a3.146,3.146,0,0,0,.514-.088c.676-.176.911-.588.573-1.235a9.465,9.465,0,0,0-.985-1.543c-1.587-2.043-3.189-4.057-4.806-6.07l-.191-.22a1.264,1.264,0,0,0-.794,1.338v5.321a7.568,7.568,0,0,0,0,.823,1.558,1.558,0,0,0,1.47,1.631,2.188,2.188,0,0,1,.808.1.353.353,0,0,1,.206.265c0,.088-.132.191-.22.25s-.132,0-.191,0H102.38v-.456h.559c1.7,0,2.278-.514,2.293-2.219V15.621c0-1.852-.941-2.234-2.337-2.249Z" transform="translate(48.099 6.411)" fill="#fff"/>
        <path id="Trazado_5" data-name="Trazado 5" d="M38.182,9.69a5.041,5.041,0,0,1,3.572,1.558c.47.588.338,1.176-.309,1.249a4.057,4.057,0,0,0-3.2,2.263q-2.455,3.807-4.894,7.672l-4.924,7.761c-.911,1.47-1.823,2.94-2.778,4.409a4.218,4.218,0,0,1-4.953,1.734,3.836,3.836,0,0,1-2.058-1.47.985.985,0,0,1,0-.882c1.72-2.719,3.513-5.394,5.2-8.084,1.558-2.41,3.057-4.85,4.6-7.261,1.264-1.984,2.5-3.983,3.88-5.879A7.026,7.026,0,0,1,38.182,9.69Z" transform="translate(8.706 4.964)" fill="#fff"/>
        <path id="Trazado_6" data-name="Trazado 6" d="M20.829.364a4.7,4.7,0,0,1,4.409,2.7,1.367,1.367,0,0,0,1.176.75A5.879,5.879,0,0,1,30.9,6.038c.544.72.294,1.293-.588,1.558a14.36,14.36,0,0,0-2.337.867A6.173,6.173,0,0,0,25.8,10.727c-1.47,2.146-2.837,4.336-4.262,6.5a6.864,6.864,0,0,1-.4.72c-.309.4-.617.4-.911,0-.5-.691-.97-1.47-1.47-2.117-.867-1.323-1.7-2.675-2.572-3.983-.559-.823-1.132-1.631-1.764-2.4a5.762,5.762,0,0,0-3.4-1.837,1.808,1.808,0,0,1-.72-.338.661.661,0,0,1-.147-.911h0a4.924,4.924,0,0,1,2.572-2.117A9.745,9.745,0,0,1,14.774,3.8a1.47,1.47,0,0,0,1.235-.75A5.012,5.012,0,0,1,20.829.364Z" transform="translate(4.716 0.576)" fill="#fff"/>
        <path id="Trazado_7" data-name="Trazado 7" d="M158.484,32.893v.5h-7.231v-.485l1.073-.147a2.043,2.043,0,0,0,1.852-2.028,10.9,10.9,0,0,0,.088-1.382V15.829a1.47,1.47,0,0,0-.338-1.014,3.2,3.2,0,0,0-2.455-1.47c-.118,0-.22-.25-.323-.382l.1-.162H158a.941.941,0,0,1,.853.412c3.145,3.968,6.276,7.922,9.436,11.876l.382.456V16.872a9.014,9.014,0,0,0-.1-1.47,2.1,2.1,0,0,0-2.043-1.94,3.983,3.983,0,0,1-.6,0,.368.368,0,0,1-.206-.279c0-.088.147-.176.22-.265h6.511c.1.353.074.588-.353.588a4.5,4.5,0,0,0-.75.147,1.676,1.676,0,0,0-1.4,1.47,11.761,11.761,0,0,0-.147,2.028V33.819c-.426.191-.617,0-.823-.279L155.75,17.269l-.412-.5V30.439a2.425,2.425,0,0,0,2.572,2.425Z" transform="translate(71.012 6.424)" fill="#fff"/>
        <path id="Trazado_8" data-name="Trazado 8" d="M87.192,23.735l.265-.4c1.264-2.117,2.543-4.248,3.792-6.379a13.125,13.125,0,0,0,.941-1.94.941.941,0,0,0-.338-1.279,1.22,1.22,0,0,0-.323-.118,4.88,4.88,0,0,0-1.1-.22c-.367,0-.5-.176-.367-.588h6.173c.132.353,0,.529-.353.588a2.44,2.44,0,0,0-1.631,1.044,24.8,24.8,0,0,0-1.47,2.264L88.1,24.484a1.793,1.793,0,0,0-.25.867v4.806a8.148,8.148,0,0,0,0,1.029A1.617,1.617,0,0,0,89.441,32.8a5.644,5.644,0,0,0,1.22,0c.367,0,.529.118.4.529H79.887l-.235-.25c.088-.073.176-.235.279-.25h1.235a1.661,1.661,0,0,0,1.749-1.764V25.91a.823.823,0,0,0-.147-.426c-1.646-3.175-3.439-6.32-5.174-9.436-.162-.323-.367-.588-.544-.926-.588-.985-1.235-1.881-2.557-1.808a.808.808,0,0,1,0-.25V12.77h9.818v.485a6.5,6.5,0,0,0-1.088.1c-.823.132-1.1.588-.764,1.338s.838,1.749,1.293,2.6c1.044,1.955,2.117,3.91,3.189,5.879a3.819,3.819,0,0,0,.25.559Z" transform="translate(34.993 6.411)" fill="#fff"/>
        <path id="Trazado_9" data-name="Trazado 9" d="M84.086,32.919v.544H74.209c-.132-.367,0-.544.367-.529a5.762,5.762,0,0,0,1.117-.118.955.955,0,0,0,.9-1,.867.867,0,0,0-.1-.382c-.25-.735-.588-1.47-.867-2.175s-.353-1.249-.764-1.47a4.184,4.184,0,0,0-1.69-.1H68.095a.588.588,0,0,0-.647.441c-.338.941-.779,1.852-1.044,2.822A1.47,1.47,0,0,0,67.7,32.86a5.159,5.159,0,0,0,.955.132c.382,0,.485.176.353.588H62.274c-.118-.338,0-.514.309-.588a2.822,2.822,0,0,0,1.925-1.47c.647-1.22,1.279-2.455,1.852-3.719,2.219-4.909,4.409-9.833,6.629-14.7a3.439,3.439,0,0,1,.353-.456,5.446,5.446,0,0,1,.338.47L81.029,29.95c.265.573.588,1.161.882,1.749A2.4,2.4,0,0,0,84.086,32.919ZM74.415,26.5l-3.072-7.1-3.16,7.1Z" transform="translate(29.236 6.355)" fill="#fff"/>
        <path id="Trazado_10" data-name="Trazado 10" d="M126.429,33.028v.5h-6.79c-.118-.338-.074-.514.294-.588a2.94,2.94,0,0,0,2.043-1.573q1.014-1.97,1.94-3.968,3.234-7.187,6.467-14.433a3.442,3.442,0,0,1,.353-.456,2.043,2.043,0,0,1,.338.456q3.726,8.4,7.349,16.815a21.678,21.678,0,0,0,1.161,2.161,1.97,1.97,0,0,0,1.47,1c.367,0,.485.191.338.588h-9.436c-.353,0-.573,0-.412-.5a12.654,12.654,0,0,0,1.47-.176c.764-.147,1.073-.617.823-1.352-.456-1.235-.985-2.44-1.47-3.645a.514.514,0,0,0-.4-.191h-6.614a.544.544,0,0,0-.441.235,25.321,25.321,0,0,0-1.088,2.7c-.4,1.323.132,2.072,1.47,2.263Zm5.38-6.482-3.072-7.114c-1.088,2.455-2.117,4.747-3.16,7.114Z" transform="translate(56.18 6.289)" fill="#fff"/>
        <path id="Trazado_11" data-name="Trazado 11" d="M157.247,33.524h-9.862v-.47a.456.456,0,0,1,.191,0,8.636,8.636,0,0,0,1.382-.147.911.911,0,0,0,.852-.955,1.265,1.265,0,0,0-.088-.338c-.323-.926-.794-1.793-1.058-2.719a1.543,1.543,0,0,0-1.837-1.205c-1.852.1-3.7,0-5.541,0a.588.588,0,0,0-.617.382c-.353.955-.794,1.867-1.058,2.837a1.508,1.508,0,0,0,1.352,1.97,9.067,9.067,0,0,0,.911.118c.4,0,.456.191.338.573h-6.746c-.118-.338,0-.514.323-.573a2.94,2.94,0,0,0,1.867-1.47,22.21,22.21,0,0,0,1.249-2.337q3.63-8.069,7.261-16.168a3.129,3.129,0,0,1,.367-.5,3.4,3.4,0,0,1,.367.529q3.689,8.378,7.349,16.77a16.344,16.344,0,0,0,1.132,2.072,2.058,2.058,0,0,0,1.47,1.029C157.306,32.994,157.364,33.156,157.247,33.524ZM141.4,26.542h6.232l-3.072-7.114C143.445,21.868,142.431,24.176,141.4,26.542Z" transform="translate(63.621 6.294)" fill="#fff"/>
        <path id="Trazado_12" data-name="Trazado 12" d="M98.584,33.49v-.456a13.142,13.142,0,0,0,1.47-.176c.764-.162,1.073-.632.808-1.352-.456-1.235-.985-2.44-1.47-3.645a.485.485,0,0,0-.4-.206H92.381a.588.588,0,0,0-.441.25c-.367.838-.75,1.69-1.044,2.557a2.94,2.94,0,0,0-.1,1.249,1.205,1.205,0,0,0,1.014,1.029,6.849,6.849,0,0,0,1.205.191c.412,0,.529.176.382.588h-6.7c-.118-.294-.132-.5.265-.588a2.837,2.837,0,0,0,1.97-1.47c.72-1.367,1.47-2.763,2.058-4.174,2.161-4.762,4.277-9.524,6.423-14.3a2.852,2.852,0,0,1,.309-.426A2.029,2.029,0,0,1,98.07,13q3.675,8.334,7.349,16.682c.265.588.559,1.161.852,1.7a2.528,2.528,0,0,0,2.219,1.646v.529Zm.235-7.055L95.747,19.38l-3.16,7.055Z" transform="translate(40.695 6.312)" fill="#fff"/>
        <path id="Trazado_13" data-name="Trazado 13" d="M41.77.22h2.749c.147,0,.338.25.4.426L47.3,8.539a.527.527,0,0,0,.162.382c.088-.22.147-.323.191-.441.852-2.646,1.7-5.188,2.528-7.79.132-.4.294-.588.75-.588a7.231,7.231,0,0,0,1.382,0A.6.6,0,0,1,53,.617c.867,2.557,1.661,5.13,2.484,7.687l.22.588a2.69,2.69,0,0,0,.206-.47C56.7,5.835,57.482,3.262,58.276.661a.588.588,0,0,1,.647-.514h2.513l-.661,1.94-3.6,10.774a.573.573,0,0,1-.661.485,13.228,13.228,0,0,0-1.47,0,.514.514,0,0,1-.588-.456c-.823-2.484-1.676-4.953-2.528-7.423a1.058,1.058,0,0,0-.309-.485l-.235.647c-.823,2.484-1.69,4.865-2.5,7.349-.118.382-.294.529-.691.5a10.832,10.832,0,0,0-1.382,0,.647.647,0,0,1-.764-.5h0c-1.47-4.2-2.866-8.348-4.262-12.508A2.041,2.041,0,0,0,41.77.22Z" transform="translate(19.624 0.456)" fill="#fff"/>
        <path id="Trazado_14" data-name="Trazado 14" d="M8.866,6.2A7.937,7.937,0,0,1,15.2,9.272c1.22,1.543,2.234,3.219,3.322,4.85.838,1.264,1.646,2.557,2.469,3.821a1.088,1.088,0,0,1,0,1.47c-.867,1.367-1.749,2.66-2.513,4.13a2.734,2.734,0,0,1-.309.412.47.47,0,0,1-.647.191.514.514,0,0,1-.206-.191c-.279-.382-.529-.794-.779-1.176l-4.968-7.863c-.72-1.161-1.47-2.337-2.234-3.41A5.438,5.438,0,0,0,5.251,9.169c-.279,0-.735-.176-.779-.367a1.235,1.235,0,0,1,.279-.9,3.91,3.91,0,0,1,2.513-1.47q.795-.157,1.6-.235Z" transform="translate(2.099 3.324)" fill="#fff"/>
        <path id="Trazado_15" data-name="Trazado 15" d="M114.389,4.915l-3.572,5.453-3.5-5.379H107.2v7.761c0,.382-.088.573-.514.529a17.359,17.359,0,0,0-1.749,0c-.426,0-.588-.1-.588-.544V.7c0-.412.118-.529.529-.514h2.043a.808.808,0,0,1,.823.456c.926,1.558,1.881,3.087,2.837,4.63a3.278,3.278,0,0,0,.25.367A2.161,2.161,0,0,0,111.1,5.3c.97-1.573,1.94-3.145,2.94-4.718a.676.676,0,0,1,.691-.4h2.2c.323,0,.441.088.441.441V12.807c0,.367-.118.485-.456.47h-1.852c-.412,0-.529-.118-.529-.529V4.973Z" transform="translate(49.025 0.494)" fill="#fff"/>
        <path id="Trazado_16" data-name="Trazado 16" d="M68.062,5.184v7.555c0,.426-.132.573-.544.529H65.607c-.132,0-.367-.191-.367-.309V.363c0-.191,0-.162.074-.162h2.41c.147,0,.309.191.412.338l5.438,7.2c0,.1.162.191.309.367a4.252,4.252,0,0,0,0-.426V.716c0-.441.147-.588.588-.544h1.837c.294,0,.426,0,.426.412V12.842c0,.323-.118.4-.426.412-1.955,0-1.955,0-3.131-1.47l-4.85-6.467-.132-.22Z" transform="translate(30.651 0.489)" fill="#fff"/>
        <path id="Trazado_17" data-name="Trazado 17" d="M156.472,8V.655c0-.382.1-.529.5-.514h1.9c.309,0,.412.118.412.426v12.3c0,.338-.118.47-.456.441h0c-1.911,0-1.911,0-3.072-1.47l-4.806-6.408-.176-.309-.132.088v7.569c0,.412-.132.529-.529.514h-1.9c-.309,0-.412-.118-.412-.412V.611c0-.294.1-.4.4-.4h1.94a.926.926,0,0,1,.588.382q2.734,3.572,5.424,7.187l.265.279Z" transform="translate(69.438 0.477)" fill="#fff"/>
        <path id="Trazado_18" data-name="Trazado 18" d="M136.889,8.642l3.131,4.63h-3.175c-.147,0-.309-.206-.4-.353-.779-1.146-1.558-2.293-2.308-3.454a.647.647,0,0,0-.691-.382,9.5,9.5,0,0,1-1.293,0c-.382,0-.5.1-.5.5V12.8c0,.382-.118.514-.5.5h-1.94c-.309,0-.426-.1-.426-.426V.617c0-.353.118-.441.441-.441h5.879a4.13,4.13,0,0,1,4.277,2.69,4.409,4.409,0,0,1-2.19,5.659A1.352,1.352,0,0,1,136.889,8.642ZM131.671,4.63V6.1a.485.485,0,0,0,.338.353h2.94a1.808,1.808,0,0,0,1.867-1.778,2.25,2.25,0,0,0,0-.441,1.852,1.852,0,0,0-1.955-1.47h-2.675c-.309,0-.412.132-.412.426S131.671,4.145,131.671,4.63Z" transform="translate(60.507 0.485)" fill="#fff"/>
        <path id="Trazado_19" data-name="Trazado 19" d="M75.13,6.683V.7c0-.412.132-.529.529-.529h4.865a6.247,6.247,0,0,1,6,3.821,6.35,6.35,0,0,1-1.1,7.114,6.585,6.585,0,0,1-5.13,2.146H75.674c-.426,0-.544-.132-.544-.573C75.145,10.71,75.13,8.74,75.13,6.683Zm2.851,0V10.21c0,.353.132.485.485.47h2a3.645,3.645,0,0,0,3.5-2.719,3.895,3.895,0,0,0-3.248-5.1,20.66,20.66,0,0,0-2.337,0c-.353,0-.367.22-.367.485v3.4Z" transform="translate(35.297 0.49)" fill="#fff"/>
        <path id="Trazado_20" data-name="Trazado 20" d="M157.67,6.657V.778c0-.426.088-.588.529-.588h4.88a6.511,6.511,0,0,1,6.129,4.086,6.673,6.673,0,0,1-1.47,7.143,7,7,0,0,1-4.865,1.852h-4.556c-.441,0-.588-.1-.588-.588C157.685,10.7,157.67,8.73,157.67,6.657Zm2.851,0V10.2c0,.382.132.5.5.485h1.837a3.675,3.675,0,0,0,3.542-2.4,4.16,4.16,0,0,0-1.117-4.615,3.719,3.719,0,0,0-1.617-.75,23.384,23.384,0,0,0-2.866-.132c-.338,0-.309.22-.309.456V6.716Z" transform="translate(74.075 0.501)" fill="#fff"/>
        <path id="Trazado_21" data-name="Trazado 21" d="M130.464,1.879c-.529.661-1.058,1.308-1.6,1.94h-.485a5,5,0,0,0-2.69-1.044A3.836,3.836,0,0,0,121.6,6.362h0a4,4,0,0,0,1.69,3.954,4.306,4.306,0,0,0,4.409.235.823.823,0,0,0,.573-.911c0-1.293,0-1.293-1.293-1.293a8.657,8.657,0,0,1-1.235,0,.544.544,0,0,1-.353-.338V6.215c0-.118.176-.323.265-.323h5.365v5.262a.9.9,0,0,1-.22.573,8.113,8.113,0,0,1-8.819,1.1A6.585,6.585,0,0,1,118.618,6.2,6.511,6.511,0,0,1,123.262.321a7.437,7.437,0,0,1,6.982,1.249l.118.1a.9.9,0,0,1,.1.206Z" transform="translate(55.702 0.385)" fill="#fff"/>
        <path id="Trazado_22" data-name="Trazado 22" d="M84.931,6.774V.719c0-.426.132-.573.559-.544a16.167,16.167,0,0,0,1.69,0c.456,0,.632.088.617.588V4.849c0,.382.118.514.5.5H92.6c.382,0,.5-.132.5-.5V.645c0-.338,0-.5.441-.485h2c.309,0,.426,0,.426.4V12.83c0,.338-.147.412-.441.4H93.544c-.353,0-.441-.118-.441-.441V8.538c0-.412-.1-.588-.544-.588H88.3c-.367,0-.5.118-.5.5v4.2c0,.47-.147.588-.573.588H85.46c-.588,0-.529-.118-.529-.529C84.945,10.772,84.931,8.744,84.931,6.774Z" transform="translate(39.901 0.486)" fill="#fff"/>
        <path id="Trazado_23" data-name="Trazado 23" d="M107.36,13.294h-2.749c-.1,0-.265-.191-.323-.338-.309-.706-.573-1.47-.882-2.175a.5.5,0,0,0-.573-.4H98.144a.514.514,0,0,0-.544.412c-.279.706-.588,1.47-.838,2.1a.588.588,0,0,1-.632.441H93.72a1.125,1.125,0,0,1,.132-.47Q96.424,6.768,99,.654c.162-.382.338-.573.779-.529a9.539,9.539,0,0,0,1.587,0,.573.573,0,0,1,.691.456c1.47,3.439,2.94,6.879,4.409,10.289.279.661.573,1.338.852,2.014A1.029,1.029,0,0,1,107.36,13.294ZM100.6,3.77h-.147l-1.617,4h3.41Z" transform="translate(44.031 0.463)" fill="#fff"/>
        <path id="Trazado_24" data-name="Trazado 24" d="M150.745,13.292H148.07c-.132,0-.309-.235-.367-.4-.309-.691-.588-1.47-.852-2.1a.6.6,0,0,0-.573-.426h-4.615a.6.6,0,0,0-.647.456c-.265.72-.573,1.47-.853,2.131a.425.425,0,0,1-.323.338H137.12c.4-.97.764-1.867,1.161-2.763L142.47.608a.617.617,0,0,1,.705-.485h1.793a.559.559,0,0,1,.456.279q2.7,6.35,5.38,12.729C150.907,13.351,150.907,13.277,150.745,13.292ZM144,3.738h-.132l-1.631,4.013h3.41Z" transform="translate(64.42 0.465)" fill="#fff"/>
        <path id="Trazado_25" data-name="Trazado 25" d="M68.143.18,66.056,3.487c-.867,1.367-1.749,2.734-2.6,4.115a2.175,2.175,0,0,0-.279,1v4.189c0,.353-.1.5-.47.485h-1.94c-.338,0-.441-.118-.441-.456V8.734A2.351,2.351,0,0,0,60,7.647L55.591.636A2.822,2.822,0,0,1,55.4.253h2.778a.794.794,0,0,1,.779.441c.823,1.47,1.676,2.94,2.528,4.409l.265.4A2.939,2.939,0,0,0,62,5.163c.9-1.47,1.793-2.94,2.66-4.409a.691.691,0,0,1,.691-.544Z" transform="translate(26.028 0.496)" fill="#fff"/>
        <path id="Trazado_26" data-name="Trazado 26" d="M146.368,32.047l-2.2,3.234-2.293-3.351v4.586c0,.25,0,.5-.338.5s-.353-.22-.353-.47V31.15a.823.823,0,0,1,.176-.441.946.946,0,0,1,.691.25c.632.867,1.22,1.764,1.808,2.675l.353.514.338-.456c.573-.911,1.191-1.837,1.837-2.719.118-.176.441-.191.676-.294a1.6,1.6,0,0,1,.176.529v5.365c0,.25,0,.485-.338.485s-.353-.22-.353-.47V32.179Z" transform="translate(66.328 14.825)" fill="#fff"/>
        <path id="Trazado_27" data-name="Trazado 27" d="M48.242,37.022a.911.911,0,0,1-1.176-.353c-.367-.588-.823-1.1-1.205-1.661a.867.867,0,0,0-.852-.412c-1.308,0-1.308,0-1.308,1.323v.764c0,.25,0,.412-.382.412s-.338-.176-.338-.426V31.143c0-.279,0-.456.382-.441H45.95a1.984,1.984,0,0,1,2.1,1.646A1.764,1.764,0,0,1,46.875,34.3l-.529.191Zm-3.2-3.087h1.073a1.352,1.352,0,0,0,1.308-1.323,1.264,1.264,0,0,0-1.293-1.205H45.053c-1.279,0-1.279,0-1.279,1.293s-.044,1.191,1.264,1.161Z" transform="translate(20.192 14.833)" fill="#fff"/>
        <path id="Trazado_28" data-name="Trazado 28" d="M106.654,37.034c-.485.1-.823.118-1.088-.294s-.852-1.117-1.249-1.7a.911.911,0,0,0-.9-.426c-1.264,0-1.264,0-1.264,1.249a4.409,4.409,0,0,1,0,.882c0,.132-.22.235-.338.353-.118-.132-.338-.25-.338-.382V31.052c0-.309.132-.382.4-.382h2.557a1.887,1.887,0,0,1,2.014,2.381,1.69,1.69,0,0,1-1.088,1.205,2.161,2.161,0,0,0-.544.206Zm-3.2-3.087h1.117a1.338,1.338,0,0,0,1.22-1.308,1.249,1.249,0,0,0-1.264-1.22h-1.058c-1.308,0-1.308,0-1.308,1.308s0,1.22,1.293,1.191Z" transform="translate(47.676 14.82)" fill="#fff"/>
        <path id="Trazado_29" data-name="Trazado 29" d="M128.907,34.474l.941,1.279.926,1.22c-.5.118-.853.088-1.132-.323s-.823-1.088-1.205-1.646a.9.9,0,0,0-.9-.456c-1.264,0-1.264,0-1.264,1.249v.823c0,.279,0,.426-.367.426s-.338-.147-.338-.4V31.02c0-.265.088-.367.353-.367h2.616a1.911,1.911,0,0,1,2.072,1.984,1.661,1.661,0,0,1-.985,1.543C129.406,34.283,129.142,34.341,128.907,34.474Zm-1.338-.588a7.085,7.085,0,0,0,1.117,0,1.323,1.323,0,0,0,1.205-1.293,1.235,1.235,0,0,0-1.235-1.22h-1.69c-.559,0-.676,0-.676.661v.6c0,1.264,0,1.264,1.293,1.235Z" transform="translate(58.994 14.809)" fill="#fff"/>
        <path id="Trazado_30" data-name="Trazado 30" d="M63.19,33.835V31.072c0-.147.191-.4.279-.4a16.256,16.256,0,0,1,2.807.118A2.94,2.94,0,0,1,68.79,34a3.057,3.057,0,0,1-2.837,2.94H63.616c-.323,0-.412-.132-.4-.426C63.219,35.673,63.19,34.747,63.19,33.835Zm.706,0v2.2c0,.279.1.412.382.4h1.47a2.513,2.513,0,0,0,.514-4.924,9.892,9.892,0,0,0-2.087-.1c-.073,0-.22.265-.235.4v2.028Z" transform="translate(29.687 14.815)" fill="#fff"/>
        <path id="Trazado_31" data-name="Trazado 31" d="M75.771,32.022V36.5c0,.25,0,.544-.338.544s-.323-.279-.323-.514V31.169c0-.147.088-.412.147-.412a1.073,1.073,0,0,1,.632.162c.382.412.705.867,1.058,1.323l2.41,3.072c0,.1.176.191.309.367a2.134,2.134,0,0,0,0-.412v-4.1c0-.25,0-.529.367-.529s.323.309.323.544V36.5a1.469,1.469,0,0,1-.147.5.749.749,0,0,1-.573-.25c-1.044-1.264-2.043-2.572-3.057-3.851l-.75-.941Z" transform="translate(35.288 14.806)" fill="#fff"/>
        <path id="Trazado_32" data-name="Trazado 32" d="M124.461,30.65c.162.485,0,.661-.412.647h-2.94c-.353,0-.485.132-.47.485s0,.852,0,1.279.118.485.47.47h2.513c.235,0,.5,0,.5.323s-.279.309-.5.309h-2.572c-.309,0-.426.1-.412.426v1.47c0,.323.132.412.426.4h2.94c.235,0,.559-.1.544.338s-.294.294-.514.294h-3.689c-.338,0-.456-.088-.456-.426v-5.5c0-.147.176-.4.294-.412C121.7,30.65,123.094,30.65,124.461,30.65Z" transform="translate(56.325 14.811)" fill="#fff"/>
        <path id="Trazado_33" data-name="Trazado 33" d="M69.5,33.787V31.141c0-.323.088-.456.426-.441h3.748a.5.5,0,0,1,.412.279c0,.309-.162.338-.412.338H70.646c-.323,0-.456.118-.441.456a9.275,9.275,0,0,1,0,1.279c0,.367.1.514.485.5h2.572c.25,0,.5,0,.426.338a.573.573,0,0,1-.412.294H70.661c-.367,0-.47.118-.456.47a8.451,8.451,0,0,1,0,1.22c0,.426.1.588.544.588h2.94c.22,0,.456,0,.456.323s-.22.323-.456.323h-3.7c-.353,0-.485-.1-.485-.47C69.515,35.624,69.5,34.713,69.5,33.787Z" transform="translate(32.652 14.834)" fill="#fff"/>
        <path id="Trazado_34" data-name="Trazado 34" d="M87.46,33.845v-2.69c0-.338.074-.5.441-.485h3.748a.514.514,0,0,1,.412.279c.088.309-.162.353-.412.338H88.622c-.323,0-.456.118-.441.456s0,.852,0,1.279.1.514.5.5h2.513c.25,0,.5,0,.485.338s-.25.294-.47.294H88.68c-.367,0-.529.088-.5.485a9.936,9.936,0,0,1,0,1.323c0,.338.1.456.441.456h2.94c.235,0,.559-.118.544.309s-.294.309-.514.309h-3.66c-.382,0-.485-.118-.47-.47C87.475,35.653,87.46,34.742,87.46,33.845Z" transform="translate(41.089 14.82)" fill="#fff"/>
        <path id="Trazado_35" data-name="Trazado 35" d="M49.024,33.845v-2.69c0-.338,0-.5.456-.485h3.66a.514.514,0,0,1,.4.294c0,.309-.176.323-.426.323H50.17c-.441,0-.588.147-.544.588a7.849,7.849,0,0,1,0,1.176c0,.4.132.5.5.485H52.7c.25,0,.426,0,.426.338s-.191.309-.426.309H50.067c-.294,0-.441.088-.412.412v1.47c0,.323.118.426.412.412h3.072c.235,0,.47,0,.47.323s-.176.235-.456.235H49.421c-.353,0-.485-.1-.47-.47Z" transform="translate(22.997 14.82)" fill="#fff"/>
        <path id="Trazado_36" data-name="Trazado 36" d="M166.234,36.974c-.485.176-.823.088-.926-.382a1.47,1.47,0,0,0-1.955-1.249,9.023,9.023,0,0,1-1.543,0,.573.573,0,0,0-.72.412h0c-.088.279-.25.529-.338.808a.645.645,0,0,1-.882.367c.323-.75.647-1.47.97-2.19l1.749-3.821a.661.661,0,0,1,.456-.309.588.588,0,0,1,.456.265C164.471,32.932,165.308,34.917,166.234,36.974Zm-4.7-2.293h2.94L163.1,31.609H163c-.412,1.014-.882,2-1.338,3.072Z" transform="translate(75.108 14.792)" fill="#fff"/>
        <path id="Trazado_37" data-name="Trazado 37" d="M147.62,37.04l2.41-5.335a7.778,7.778,0,0,1,.367-.794.5.5,0,0,1,.676-.191.544.544,0,0,1,.176.191c.926,2.014,1.837,4.042,2.763,6.085-.426.147-.779.162-.9-.338a1.47,1.47,0,0,0-2.043-1.279h-.353c-1.176-.206-2.014.118-2.278,1.47C148.34,37.143,148,37.04,147.62,37.04Zm4.63-2.278-1.47-3.1h-.132c-.456,1-.9,2.014-1.367,3.087Z" transform="translate(69.353 14.815)" fill="#fff"/>
        <path id="Trazado_38" data-name="Trazado 38" d="M137.559,36.969c-.5.162-.838.088-.926-.382a1.47,1.47,0,0,0-1.925-1.249,10.819,10.819,0,0,1-1.69,0,.514.514,0,0,0-.573.367c-.118.294-.279.588-.4.9a.626.626,0,0,1-.867.367c.147-.338.279-.676.412-1,.735-1.631,1.47-3.263,2.234-4.88a.926.926,0,0,1,.529-.441c.309-.118.426.162.529.4C135.736,33.015,136.633,34.97,137.559,36.969Zm-3.219-5.526-1.47,3.234h2.94Z" transform="translate(61.63 14.798)" fill="#fff"/>
        <path id="Trazado_39" data-name="Trazado 39" d="M54.565,35.728c.691.265,1.279.544,1.881.72a1.97,1.97,0,0,0,.97,0,1,1,0,0,0,.882-.926.926.926,0,0,0-.75-1.029c-.617-.22-1.279-.353-1.911-.588a1.47,1.47,0,0,1-1.161-1.631,1.617,1.617,0,0,1,.955-1.4,3.16,3.16,0,0,1,3.336.573l-.367.456V31.76c-.661-.176-1.323-.353-1.984-.47a.911.911,0,0,0-.676.176,1.558,1.558,0,0,0-.514.867,1.191,1.191,0,0,0,.514.823,8.451,8.451,0,0,0,1.47.485,6.424,6.424,0,0,1,1,.4,1.617,1.617,0,0,1,0,2.807,3.4,3.4,0,0,1-3.88-.72Z" transform="translate(25.525 14.804)" fill="#fff"/>
        <path id="Trazado_40" data-name="Trazado 40" d="M97.294,31.423l-.4.47a3.057,3.057,0,0,0-2.028-.706,1.191,1.191,0,0,0-1.073.661.9.9,0,0,0,.367,1.205h.088a14.372,14.372,0,0,0,1.47.456,8.583,8.583,0,0,1,.867.294,1.47,1.47,0,0,1,.97,1.47,1.676,1.676,0,0,1-.941,1.573,3.454,3.454,0,0,1-3.748-.808l.294-.338a17.109,17.109,0,0,0,1.881.72,2.337,2.337,0,0,0,1.1-.088.97.97,0,0,0,.735-.941.911.911,0,0,0-.661-.941c-.661-.22-1.338-.382-2-.588a1.47,1.47,0,0,1-1.176-1.47,1.646,1.646,0,0,1,1.014-1.587,3.145,3.145,0,0,1,3.234.617Z" transform="translate(43.631 14.788)" fill="#fff"/>
        <path id="Trazado_41" data-name="Trazado 41" d="M86.556,35.611l.367.367a3.189,3.189,0,0,1-5.659-1.837,3.248,3.248,0,0,1,5.644-2.5l-.441.47a2.557,2.557,0,0,0-2.484-.808,3.131,3.131,0,0,0-1.47.911,2.719,2.719,0,0,0,.132,3.5C83.646,36.787,84.9,36.772,86.556,35.611Z" transform="translate(38.172 14.774)" fill="#fff"/>
        <path id="Trazado_42" data-name="Trazado 42" d="M110.29,30.743a.667.667,0,0,1,.941.412c.573,1.47,1.205,2.94,1.823,4.409l.235.5.235-.485c.617-1.47,1.264-2.94,1.852-4.483a.6.6,0,0,1,.911-.4l-.176.47c-.779,1.808-1.47,3.616-2.337,5.424-.088.191-.338.426-.5.426a.705.705,0,0,1-.5-.441c-.838-1.867-1.631-3.763-2.425-5.644a.617.617,0,0,1-.059-.191Z" transform="translate(51.815 14.791)" fill="#fff"/>
        <path id="Trazado_43" data-name="Trazado 43" d="M156.888,33.827l1.117-1.631c.265-.353.5-.72.735-1.1a.779.779,0,0,1,1.029-.367,1.823,1.823,0,0,1-.147.294c-.691,1.029-1.47,2.014-2.087,3.057a2.279,2.279,0,0,0-.309,1.029,8.818,8.818,0,0,0,0,1.47c0,.265,0,.47-.367.4s-.235-.235-.338-.367,0-.1,0-.162a4.409,4.409,0,0,0-1.161-3.66c-.529-.676-1.014-1.382-1.47-2.1.5-.132.823-.1,1.1.338.5.823,1.073,1.631,1.617,2.425A2.939,2.939,0,0,0,156.888,33.827Z" transform="translate(72.299 14.794)" fill="#fff"/>
        <path id="Trazado_44" data-name="Trazado 44" d="M107.42,33.787V31.141c0-.279,0-.456.382-.441s.338.191.338.441v5.526c0,.25,0,.426-.353.426s-.367-.162-.367-.426Z" transform="translate(50.467 14.834)" fill="#fff"/>
        <path id="Trazado_45" data-name="Trazado 45" d="M60,33.825V31.062c0-.265,0-.412.367-.412s.338.176.338.426v5.512c0,.25,0,.441-.338.456S60,36.853,60,36.573Z" transform="translate(28.189 14.811)" fill="#fff"/>
        <path id="Trazado_46" data-name="Trazado 46" d="M117.476,33.844v2.763c0,.279,0,.441-.4.441s-.338-.191-.338-.441V31.081c0-.235,0-.426.338-.441s.4.147.4.441Z" transform="translate(54.845 14.806)" fill="#fff"/>
        <path id="Trazado_47" data-name="Trazado 47" d="M169.442,1.741a1.47,1.47,0,0,1-1.47,1.47h0A1.47,1.47,0,0,1,166.5,1.58a1.47,1.47,0,0,1,2.94,0Zm-.176,0a1.308,1.308,0,1,0-2.6-.162.308.308,0,0,0,0,.162,1.323,1.323,0,0,0,1.308,1.352,1.338,1.338,0,0,0,1.264-1.367Z" transform="translate(78.22 0.463)" fill="#fff"/>
        <path id="Trazado_48" data-name="Trazado 48" d="M181.39,14.856a5.644,5.644,0,0,1,6.173-4.262,13.228,13.228,0,0,1,4.409,1.338,22.943,22.943,0,0,0,3.4,1.47,8.246,8.246,0,0,0,7.7-1.132,6.07,6.07,0,0,1-7.349,3.777,22.665,22.665,0,0,1-4.1-1.676,14.463,14.463,0,0,0-3.939-1.47,6.658,6.658,0,0,0-6.173,1.97l-.118.1Z" transform="translate(85.218 5.368)" fill="#fff"/>
        <path id="Trazado_49" data-name="Trazado 49" d="M181.62,16.732a5.512,5.512,0,0,1,6.673-3.5,14.845,14.845,0,0,1,3.439,1.264,16.344,16.344,0,0,0,5.556,1.867,7.614,7.614,0,0,0,5.747-1.47,6.159,6.159,0,0,1-4.792,3.66,10.509,10.509,0,0,1-4.968-1.014c-1.014-.441-1.984-1-3.013-1.47a16.9,16.9,0,0,0-3.278-1.117,5.321,5.321,0,0,0-5.365,1.778Z" transform="translate(85.327 6.535)" fill="#fff"/>
        <path id="Trazado_50" data-name="Trazado 50" d="M181.82,17.514a5.438,5.438,0,0,1,4.027-2.014,10.553,10.553,0,0,1,5.747,1.573,12.758,12.758,0,0,0,5.027,1.646,7.055,7.055,0,0,0,6.217-2.219,2.706,2.706,0,0,0,.294-.235,4.674,4.674,0,0,1-1.94,2.91,8.672,8.672,0,0,1-2.381.985,9.7,9.7,0,0,1-7.026-1.044q-1.146-.6-2.249-1.235a7.349,7.349,0,0,0-7.511-.4A1.042,1.042,0,0,1,181.82,17.514Z" transform="translate(85.421 7.693)" fill="#fff"/>
        <text id="R" transform="translate(245.473 1)" fill="#fff" font-size="1" font-family="MyanmarText, Myanmar Text"><tspan x="0" y="0">R</tspan></text>
      </g>
    </g>
  </g>
</svg>
